<?xml version="1.0" standalone="no"?>
<!DOCTYPE svg PUBLIC "-//W3C//DTD SVG 20010904//EN"
 "http://www.w3.org/TR/2001/REC-SVG-20010904/DTD/svg10.dtd">
<svg version="1.0" xmlns="http://www.w3.org/2000/svg"
 width="512.000000pt" height="512.000000pt" viewBox="0 0 512.000000 512.000000"
 preserveAspectRatio="xMidYMid meet">
<metadata>
Created by potrace 1.14, written by Peter Selinger 2001-2017
</metadata>
<g transform="translate(0.000000,512.000000) scale(0.100000,-0.100000)"
fill="#000000" stroke="none">
<path d="M2185 5095 c-21 -20 -25 -34 -26 -82 -1 -132 -7 -183 -29 -249 -28
-86 -72 -173 -98 -197 -29 -26 -358 -153 -924 -357 -65 -24 -122 -48 -126 -54
-10 -12 -82 -195 -112 -281 -58 -170 -81 -239 -104 -315 -32 -103 -112 -428
-121 -490 -4 -24 -8 -47 -10 -50 -1 -3 -6 -32 -10 -65 -4 -33 -9 -71 -11 -85
-7 -43 -13 -288 -19 -730 -3 -234 -8 -506 -10 -605 -6 -260 -15 -608 -21 -850
-12 -462 -12 -558 2 -590 13 -32 45 -65 81 -84 16 -8 532 -10 1922 -8 l1900 2
28 21 c15 11 38 38 49 59 21 37 22 44 18 414 -2 207 -6 754 -9 1216 -5 750
-10 1099 -19 1160 -2 11 -7 47 -11 80 -5 33 -9 62 -10 65 -1 3 -5 25 -9 50
-39 228 -166 656 -283 955 l-54 140 -322 117 c-346 126 -641 238 -697 266 -80
39 -148 215 -156 407 -4 104 -8 123 -26 142 l-21 23 -369 0 -369 0 -24 -25z
m-870 -2366 c7 -32 45 -257 50 -289 2 -14 6 -43 10 -65 3 -22 7 -53 9 -70 2
-16 8 -59 12 -95 19 -146 10 -603 -16 -760 -5 -30 -12 -77 -15 -105 -3 -27
-10 -68 -15 -90 -5 -22 -12 -56 -15 -75 -3 -19 -25 -134 -50 -255 -45 -226
-80 -419 -89 -490 -3 -22 -10 -76 -16 -120 -5 -44 -11 -95 -12 -113 -4 -56
-14 -44 -12 14 1 30 5 206 9 392 3 185 8 382 10 437 2 55 6 195 10 310 4 116
8 239 10 275 2 36 6 133 10 215 3 83 8 161 10 175 2 14 6 77 10 140 3 63 8
126 10 140 2 14 7 54 10 90 11 120 27 242 39 295 19 84 22 88 31 44z m2551
-50 c16 -75 17 -86 29 -194 3 -33 8 -73 10 -90 7 -51 14 -136 20 -225 3 -47 8
-114 10 -150 3 -36 7 -123 10 -195 3 -71 8 -166 10 -210 4 -73 8 -181 20 -585
2 -74 7 -270 11 -435 3 -165 7 -319 8 -343 2 -67 -11 -49 -18 26 -14 137 -39
286 -111 652 -64 327 -85 454 -110 650 -11 79 -14 503 -5 575 5 39 12 93 15
120 17 153 74 489 82 482 2 -2 10 -37 19 -78z"/>
</g>
</svg>
